# xmcd
#
# Track frame offsets:
#	150
#	20820
#	36692
#	58630
#	83277
#	99645
#	113360
#	133092
#	145057
#	163142
#
# Disc length: 2452 seconds
# Revision: 1
# Processed by: cddbd v1.5.2PL0 Copyright (c) Steve Scherf et al.
# Submitted via: dBpowerAMP V12.0
#
DISCID=8309920a
DTITLE=Theessink, Nalle and Møller - Goin' Down Slow
DYEAR=2003
DGENRE=Blues
TTITLE0=Man With a Broken Heart
TTITLE1=Shake Rattle and Roll
TTITLE2=Pilgrim
TTITLE3=Ready for the Ride
TTITLE4=Goin' Down Slow
TTITLE5=Shake a Hand
TTITLE6=The New Year Blues
TTITLE7=Lawdy Miss Claudy
TTITLE8=Brand New Dawn
TTITLE9=Last Train to Memphis
EXTD=
EXTT0=
EXTT1=
EXTT2=
EXTT3=
EXTT4=
EXTT5=
EXTT6=
EXTT7=
EXTT8=
EXTT9=
PLAYORDER=
